<?xml version="1.0" encoding="UTF-8" standalone="no"?>
<!-- Created with Inkscape (http://www.inkscape.org/) -->

<svg
   width="50mm"
   height="49.406673mm"
   viewBox="0 0 50 49.406673"
   version="1.1"
   id="svg1"
   xml:space="preserve"
   xmlns="http://www.w3.org/2000/svg"
   xmlns:svg="http://www.w3.org/2000/svg"><defs
     id="defs1" /><g
     id="layer1"
     transform="translate(-69.692231,-24.206326)"><g
       id="Layer1003"
       transform="matrix(0.08205461,0,0,0.08205461,33.714671,31.268041)"
       style="stroke-width:4.29931"><path
         d="m 746.0699,-85.6426 c -20.4841,0 -40.4882,2.0516 -59.8208,5.9571 -42.9132,48.2848 -74.9875,97.7739 -101.1004,147.9246 l -0.0246,0.0357 C 624.9757,24.6472 682.3245,-2.725 746.0699,-2.725 c 79.4117,-0.2334 124.519,31.0375 190.6294,23.1031 -8.8679,60.2752 31.271,125.4526 27.3036,194.8295 0,35.7401 -8.6036,69.4702 -23.8517,99.2333 -25.8299,64.2391 -77.5424,142.1863 -121.064,192.6752 130.8678,-32.6304 227.8333,-150.9376 227.8333,-291.9085 6.3008,-103.7842 -23.8029,-201.2668 0,-300.8502 -113.5857,25.2031 -203.3672,-4.2008 -300.8506,0 z M 438.4588,34.6086 c 36.8598,-9.613 69.525,-23.0909 132.0808,-63.7291 6.3921,-4.5997 12.9735,-8.9517 19.7272,-13.0493 l 0.2825,-0.1897 -0.008,0.0226 c 25.3056,-15.3167 53.0449,-27.0165 82.5092,-34.3632 -43.555,50.5195 -95.3227,128.554 -121.1419,192.8299 l 0.007,-0.0103 c -15.2033,29.7262 -23.7791,63.4064 -23.7791,99.0881 0,120.3615 97.5719,217.9334 217.9331,217.9334 63.7306,0 121.0676,-27.3599 160.9179,-70.9701 l -0.027,0.0389 c -26.1069,50.1396 -58.1724,99.6172 -101.071,147.8917 -19.3318,3.9055 -39.3363,5.9567 -59.8199,5.9567 -166.1547,0 -300.8503,-134.6956 -300.8503,-300.8506 0,-58.54 16.7314,-113.1661 45.6602,-159.374 l -0.0127,-0.0087 C 465.9906,49.6245 447.4669,42.6767 438.4588,34.6086 Z"
         style="fill:#009933;fill-rule:evenodd;stroke-width:4.29931"
         id="path3-0" /><path
         d="m 746.0699,5.3015 c -115.9282,0 -209.9062,93.978 -209.9062,209.9057 0,115.9281 93.978,209.9061 209.9062,209.9061 115.9277,0 209.9057,-93.978 209.9057,-209.9061 0,-7.4661 -0.3965,-14.8393 -1.157,-22.1042 C 948.8254,128.5449 921.8132,73.6909 924.1212,32.605 884.8483,33.9807 835.7681,14.9989 778.8677,7.8579 768.1804,6.181 757.2283,5.3015 746.0699,5.3015 Z"
         style="fill:#ffff00;fill-rule:evenodd;stroke-width:4.29931"
         id="path4-6" /><path
         d="m 602.8817,172.0328 40.4425,-17.489 h 38.5251 v -34.7036 h 6.2271 5.3237 v 34.7036 h 8.5696 v -34.7036 h 6.2272 5.3235 v 34.7036 h 26.7736 v -34.7036 h 3.1139 5.3233 3.1136 v 34.7036 h 26.7736 v -34.7036 h 5.3237 6.227 v 34.7036 h 8.5698 v -34.7036 h 5.3235 6.2273 v 34.7036 h 38.5253 l 40.4425,17.489 v 29.5118 H 858.106 c -7.5149,0 -13.663,6.1481 -13.663,13.663 0,7.5149 6.1481,13.663 13.663,13.663 h 31.1515 v 29.5117 l -40.4425,17.4891 h -38.5253 v 34.7036 h -6.2273 -5.3235 v -34.7036 h -8.5698 v 34.7036 h -6.227 -5.3237 v -34.7036 h -26.7736 v 34.7036 h -3.1136 -5.3233 -3.1139 v -34.7036 h -26.7736 v 34.7036 h -5.3235 -6.2272 v -34.7036 h -8.5696 v 34.7036 h -5.3237 -6.2271 v -34.7036 h -38.5251 l -40.4425,-17.4891 v -29.5117 h 31.1516 c 7.5149,0 13.6629,-6.1481 13.6629,-13.663 0,-7.5149 -6.148,-13.663 -13.6629,-13.663 h -31.1516 z"
         style="fill:#ff6600;fill-rule:evenodd;stroke-width:4.29931"
         id="path5" /></g></g></svg>
